<svg xmlns="http://www.w3.org/2000/svg" width="490" height="365" viewBox="140 305 490 365">
  <defs>
    <linearGradient id="g_bar_mark" gradientUnits="userSpaceOnUse" x1="369.38" y1="506.56" x2="272.16" y2="420.15">
      <stop offset="0" stop-color="#010203"/>
      <stop offset="1" stop-color="#363C42"/>
    </linearGradient>
    <linearGradient id="g_green1_mark" gradientUnits="userSpaceOnUse" x1="539.95" y1="690.37" x2="491.09" y2="552.38">
      <stop offset="0" stop-color="#007F37"/>
      <stop offset="1" stop-color="#15D457"/>
    </linearGradient>
    <linearGradient id="g_green2_mark" gradientUnits="userSpaceOnUse" x1="508.20" y1="588.66" x2="501.35" y2="493.41">
      <stop offset="0" stop-color="#08D351"/>
      <stop offset="1" stop-color="#42FF78"/>
    </linearGradient>
  </defs>
  <path fill="url(#g_bar_mark)" d="M418.045 310.544C440.438 312.304 540.89 307.917 549.878 312.884C551.768 315.41 552.132 315.472 551.985 319.194C551.924 320.743 550.952 323.032 550.105 324.349C539.386 341.018 528.464 357.735 517.659 374.337L456.546 468.418L381.413 583.247C367.341 604.618 353.13 626.004 338.789 647.202C336.052 650.813 331.817 656.715 328.299 659.28C325.038 661.657 315.925 664.024 311.92 664.153C280.488 665.169 248.885 664.264 217.422 664.505C212.057 664.546 207.003 664.453 201.714 664.733C189.627 664.863 177.562 664.995 165.453 665.015C158.672 665.026 144.63 663.574 148.6 653.142C150.527 648.081 154.26 643.475 157.156 638.881C160.152 634.128 163.31 629.429 166.378 624.713L198.898 574.251C242.038 507.543 284.552 440.432 326.435 372.928C333.634 361.281 355.256 322.492 365.07 315.351C373.45 309.255 404.585 311.314 418.045 310.544Z"/>
  <path fill="url(#g_green1_mark)" d="M498.221 496.681C502.044 487.593 513.71 474.176 523.506 484.005C532.587 490.005 556.401 539.267 564.872 550.727C565.814 552.002 568.771 557.421 569.632 559.123C572.107 563.193 588.226 589.287 589.235 592.451C601.029 611.001 612.199 631.526 623.344 650.526C632.606 666.313 614.411 664.594 604.684 664.361L509 664.435C494.472 664.437 458.845 666.292 447.545 660.853C437.783 656.188 430.283 647.828 426.703 637.621C424.572 631.47 424.418 623.884 427.314 617.965C428.739 613.459 446.977 582.642 450.151 577.522C466.22 551.6 481.764 522.017 498.221 496.681Z"/>
  <path fill="url(#g_green2_mark)" d="M498.221 496.681C502.044 487.593 513.71 474.176 523.506 484.005C532.587 490.005 556.401 539.267 564.872 550.727C565.814 552.002 568.771 557.421 569.632 559.123C568.399 565.767 577.776 578.702 581.007 585.719C578.299 583.185 574.393 575.525 572.829 574.702C554.742 565.183 549.566 548.16 526.984 545.384C512.079 543.551 505.25 547.262 492.98 555.869C487.177 559.946 480.256 563.935 474.608 568.427C464.482 577.102 452.803 588.762 441.381 595.715C439.983 598.82 429.879 616.236 427.314 617.965C428.739 613.459 446.977 582.642 450.151 577.522C466.22 551.6 481.764 522.017 498.221 496.681Z"/>
  <path fill="#4EFA87" d="M498.221 496.681C502.044 487.593 513.71 474.176 523.506 484.005C522.788 490.238 536.64 503.332 534.731 508.328C531.066 501.43 519.502 495.811 512.259 493.054C504.653 494.142 504.769 494.891 498.221 496.681Z"/>
</svg>